<?xml version="1.0" encoding="UTF-8"?>
<svg xmlns="http://www.w3.org/2000/svg" width="64" height="64" viewBox="0 0 64 64">
  <defs>
    <linearGradient id="g" x1="0%" y1="0%" x2="100%" y2="100%">
      <stop offset="0%" stop-color="#6366f1"/>
      <stop offset="50%" stop-color="#a855f7"/>
      <stop offset="100%" stop-color="#ec4899"/>
    </linearGradient>
  </defs>
  <rect width="64" height="64" rx="14" ry="14" fill="url(#g)"/>
  <path d="M28.53 23.58C28.58 21.61 29.97 20.70 32.28 20.70C35.16 20.70 36.84 21.37 37.99 22.14C38.42 22.47 39.48 22.76 40.20 22.76C42.02 22.76 43.70 21.99 44.32 20.02C45.04 17.72 43.51 15.32 41.30 14.12C39.52 13.16 37.17 12.20 32.18 12.20C25.60 12.20 20.90 15.18 19.22 20.31C17.59 25.35 19.17 31.93 26.42 34.95C27 35.19 27.96 35.58 28.72 35.82C32.71 37.06 35.88 38.46 35.83 40.28C35.78 42.39 34.20 43.30 31.56 43.30C28.29 43.30 26.80 42.73 25.70 42.06C24.79 41.58 23.97 40.81 22.29 40.86C21 40.90 19.60 41.53 18.88 42.58C17.44 44.79 18.31 47.38 20.13 48.87C22.72 50.94 27 51.80 31.27 51.80C40 51.80 45.38 47.82 45.81 NaNC46.20 34.81 42.50 30.63 36.88 28.62L34.53 27.80C30.69 26.50 28.48 25.35 28.53 23.58" fill="#ffffff"/>
</svg>