<?xml version="1.0" encoding="UTF-8"?>
<svg xmlns="http://www.w3.org/2000/svg" width="64" height="64" viewBox="0 0 64 64">
  <defs>
    <linearGradient id="g" x1="0%" y1="0%" x2="100%" y2="100%">
      <stop offset="0%" stop-color="#6366f1"/>
      <stop offset="50%" stop-color="#a855f7"/>
      <stop offset="100%" stop-color="#ec4899"/>
    </linearGradient>
  </defs>
  <rect width="64" height="64" rx="14" ry="14" fill="url(#g)"/>
  <path d="M29.13 25.04C29.17 23.41 30.32 22.66 32.23 22.66C34.61 22.66 36 23.21 36.95 23.85C37.31 24.12 38.18 24.36 38.78 24.36C40.28 24.36 41.67 23.73 42.19 22.10C42.78 20.20 41.51 18.21 39.69 17.22C38.22 16.43 36.28 15.63 32.15 15.63C26.71 15.63 22.82 18.09 21.44 22.34C20.09 26.50 21.40 31.94 27.39 34.44C27.86 34.64 28.66 34.96 29.29 35.15C32.59 36.19 35.20 37.34 35.16 38.84C35.12 40.59 33.82 41.34 31.63 41.34C28.93 41.34 27.70 40.87 26.79 40.31C26.04 39.92 25.36 39.28 23.97 39.32C22.90 39.36 21.75 39.88 21.16 40.75C19.97 42.57 20.68 44.72 22.19 45.95C24.33 47.65 27.86 48.37 31.39 48.37C38.62 48.37 43.06 45.07 43.42 39.44C43.74 34.32 40.68 30.87 36.04 29.20L34.09 28.53C30.92 27.46 29.09 26.50 29.13 25.04" fill="#ffffff"/>
</svg>