<?xml version="1.0" encoding="UTF-8"?>
<svg xmlns="http://www.w3.org/2000/svg" width="1200" height="630" viewBox="0 0 1200 630">
  <defs>
    <linearGradient id="bg" x1="0%" y1="0%" x2="100%" y2="100%">
      <stop offset="0%" stop-color="#f5f3ff"/>
      <stop offset="50%" stop-color="#faf5ff"/>
      <stop offset="100%" stop-color="#fdf2f8"/>
    </linearGradient>
    <linearGradient id="logo" x1="0%" y1="0%" x2="100%" y2="100%">
      <stop offset="0%" stop-color="#6366f1"/>
      <stop offset="50%" stop-color="#a855f7"/>
      <stop offset="100%" stop-color="#ec4899"/>
    </linearGradient>
    <radialGradient id="blob1" cx="0%" cy="0%" r="60%">
      <stop offset="0%" stop-color="#a78bfa" stop-opacity="0.35"/>
      <stop offset="100%" stop-color="#a78bfa" stop-opacity="0"/>
    </radialGradient>
    <radialGradient id="blob2" cx="100%" cy="100%" r="60%">
      <stop offset="0%" stop-color="#f472b6" stop-opacity="0.35"/>
      <stop offset="100%" stop-color="#f472b6" stop-opacity="0"/>
    </radialGradient>
  </defs>

  <!-- 배경 + 블롭 -->
  <rect width="1200" height="630" fill="url(#bg)"/>
  <circle cx="100" cy="100" r="320" fill="url(#blob1)"/>
  <circle cx="1100" cy="530" r="320" fill="url(#blob2)"/>

  <!-- 좌측 S 로고 박스 -->
  <rect x="95" y="215" width="200" height="200" rx="44" ry="44" fill="url(#logo)"/>
  <path d="M183.69 275.95C183.87 268.98 188.79 265.75 196.95 265.75C207.16 265.75 213.11 268.13 217.19 270.85C218.72 272.04 222.45 273.06 225 273.06C231.47 273.06 237.42 270.34 239.63 263.37C242.18 255.21 236.74 246.71 228.92 242.46C222.63 239.06 214.30 235.66 196.62 235.66C173.32 235.66 156.66 246.20 150.72 264.39C144.94 282.24 150.54 305.53 176.22 316.24C178.25 317.09 181.66 318.45 184.38 319.30C198.49 323.72 209.70 328.65 209.53 335.11C209.37 342.59 203.75 345.82 194.41 345.82C182.84 345.82 177.57 343.78 173.66 341.40C170.44 339.70 167.54 336.98 161.59 337.15C157 337.32 152.07 339.53 149.53 343.27C144.42 351.09 147.48 360.27 153.94 365.54C163.13 372.85 178.25 375.91 193.38 375.91C224.32 375.91 243.37 361.80 244.89 337.66C246.25 315.73 233.17 300.94 213.27 293.80L204.94 290.91C191.34 286.32 183.53 282.24 183.69 275.95" fill="#ffffff"/>

  <!-- 상단 라벨 (영문, 보라색, 자간 넓게) -->
  <path d="M360.50 239.57C360.52 238.67 361.16 238.25 362.22 238.25C363.54 238.25 364.31 238.56 364.83 238.91C365.03 239.06 365.52 239.20 365.85 239.20C366.68 239.20 367.45 238.84 367.74 237.94C368.07 236.89 367.36 235.79 366.35 235.24C365.54 234.80 364.46 234.36 362.17 234.36C359.16 234.36 357 235.72 356.23 238.07C355.48 240.38 356.21 243.40 359.53 244.78C359.80 244.89 360.24 245.07 360.59 245.18C362.41 245.75 363.87 246.39 363.84 247.23C363.82 248.19 363.10 248.61 361.89 248.61C360.39 248.61 359.71 248.35 359.20 248.04C358.78 247.82 358.41 247.47 357.64 247.49C357.05 247.51 356.41 247.80 356.08 248.28C355.42 249.29 355.81 250.48 356.65 251.16C357.84 252.11 359.80 252.51 361.75 252.51C365.76 252.51 368.22 250.68 368.42 247.56C368.60 244.72 366.90 242.80 364.33 241.88L363.25 241.51C361.49 240.91 360.48 240.38 360.50 239.57" fill="#7c3aed"/><path d="M381.15 235.65C380.60 234.71 379.37 234.27 378.31 234.38C377.30 234.49 376.11 235.21 376.11 236.58L376.11 252.13L380.12 252.13L380.12 241.62L385.49 251.12C386.04 252.07 387.31 252.48 388.37 252.40C389.36 252.31 390.52 251.63 390.52 250.28L390.52 236.42C390.52 235.08 389.58 234.33 388.52 234.33C387.47 234.33 386.52 235.08 386.52 236.42L386.52 245.20" fill="#7c3aed"/><path d="M403.21 239.57C403.23 238.67 403.87 238.25 404.93 238.25C406.25 238.25 407.02 238.56 407.55 238.91C407.74 239.06 408.23 239.20 408.56 239.20C409.39 239.20 410.16 238.84 410.45 237.94C410.78 236.89 410.08 235.79 409.06 235.24C408.25 234.80 407.17 234.36 404.88 234.36C401.87 234.36 399.71 235.72 398.94 238.07C398.20 240.38 398.92 243.40 402.24 244.78C402.51 244.89 402.95 245.07 403.30 245.18C405.13 245.75 406.58 246.39 406.56 247.23C406.53 248.19 405.81 248.61 404.60 248.61C403.10 248.61 402.42 248.35 401.91 248.04C401.50 247.82 401.12 247.47 400.35 247.49C399.76 247.51 399.12 247.80 398.79 248.28C398.13 249.29 398.53 250.48 399.36 251.16C400.55 252.11 402.51 252.51 404.47 252.51C408.47 252.51 410.93 250.68 411.13 247.56C411.31 244.72 409.61 242.80 407.04 241.88L405.96 241.51C404.20 240.91 403.19 240.38 403.21 239.57" fill="#7c3aed"/><path d="M441.19 251.34C442.03 251.34 443.33 251.01 443.55 250.26L445.79 242.17L446.78 252.13L450.94 252.13L449.09 236.58C448.96 235.24 447.77 234.47 446.78 234.38C445.73 234.29 444.25 234.73 443.86 236.18L441.19 246.26L438.53 236.18C438.14 234.73 436.66 234.29 435.61 234.38C434.62 234.47 433.43 235.24 433.30 236.58L431.45 252.13L435.61 252.13L436.62 242.23L438.84 250.26C439.06 251.01 440.36 251.34 441.19 251.34" fill="#7c3aed"/><path d="M457.71 252.13L462.46 252.13L463.30 249.40L468.95 249.40L469.81 252.13L474.65 252.13L468.91 236.16C468.49 234.97 467.32 234.33 466.20 234.33C465.01 234.33 463.80 234.93 463.36 236.16M466.14 240.21L467.81 245.69L464.44 245.69" fill="#7c3aed"/><path d="M495.92 240.43L495.92 240.16C495.92 236.23 493.12 234.42 489.32 234.42L485.27 234.42C482.63 234.42 481.84 235.37 481.84 237.90L481.84 252.13L486.35 252.13L486.35 246.21L489.16 246.21L492.46 252.13L497.44 252.13L493.26 245.11C494.82 244.12 495.92 242.52 495.92 240.43M486.35 238.84C486.35 238.32 486.48 238.21 486.99 238.21L489.21 238.21C490.68 238.21 491.45 239.15 491.45 240.27L491.45 240.43C491.45 241.55 490.68 242.50 489.21 242.50L486.35 242.50" fill="#7c3aed"/><path d="M504.25 252.13L508.69 252.13L508.69 247.60L510.45 245.64L514.37 252.13L519.47 252.13L513.34 242.43L517.49 237.79C518.35 236.82 518.07 235.37 517.05 234.71C516.15 234.11 514.72 234.22 513.86 235.28L508.69 241.62L508.69 236.56C508.69 235.10 507.64 234.33 506.47 234.33C505.33 234.33 504.25 235.10 504.25 236.56" fill="#7c3aed"/><path d="M530.84 238.91C530.84 238.38 530.97 238.27 531.48 238.27L537.05 238.27C538.34 238.27 538.83 237.28 538.83 236.38C538.83 235.48 538.32 234.42 537.05 234.42L529.76 234.42C527.12 234.42 526.33 235.37 526.33 237.90L526.33 248.66C526.33 251.19 527.12 252.13 529.76 252.13L537.27 252.13C538.54 252.13 539.05 251.08 539.05 250.17C539.05 249.27 538.56 248.28 537.27 248.28L531.48 248.28C530.97 248.28 530.84 248.17 530.84 247.64L530.84 245.07L536.85 245.07C538.15 245.07 538.63 244.08 538.63 243.20C538.63 242.32 538.12 241.26 536.85 241.26L530.84 241.26" fill="#7c3aed"/><path d="M555.43 252.13L555.43 238.32L558.80 238.32C560.07 238.32 560.58 237.26 560.58 236.36C560.58 235.46 560.10 234.47 558.80 234.47L547.49 234.47C546.19 234.47 545.71 235.46 545.71 236.36C545.71 237.26 546.21 238.32 547.49 238.32L550.86 238.32L550.86 252.13" fill="#7c3aed"/><path d="M567.70 252.13L572.28 252.13L572.28 236.53C572.28 235.02 571.22 234.33 569.99 234.33C568.76 234.33 567.70 235.02 567.70 236.53" fill="#7c3aed"/><path d="M585.63 235.65C585.08 234.71 583.84 234.27 582.79 234.38C581.78 234.49 580.59 235.21 580.59 236.58L580.59 252.13L584.59 252.13L584.59 241.62L589.96 251.12C590.51 252.07 591.79 252.48 592.84 252.40C593.83 252.31 595 251.63 595 250.28L595 236.42C595 235.08 594.05 234.33 593 234.33C591.94 234.33 590.99 235.08 590.99 236.42L590.99 245.20" fill="#7c3aed"/><path d="M617.65 245.07C617.65 242.61 616.99 241.79 614.40 241.79L612.39 241.79C611.14 241.79 610.63 242.83 610.63 243.71C610.63 244.59 611.12 245.55 612.39 245.55L613.12 245.55C613.54 245.55 613.63 245.62 613.63 246.06L613.63 246.32C613.63 247.89 612.24 248.61 610.74 248.61C609.16 248.61 607.60 247.64 607.60 245.62L607.60 241.22C607.60 239.20 609.27 238.23 610.81 238.23C611.78 238.23 612.55 238.32 613.08 238.51C613.41 238.65 613.78 238.89 614.29 238.98C615.03 239.11 615.85 238.80 616.29 238.03C616.82 237.11 616.38 236.05 615.47 235.41C614.62 234.80 612.83 234.33 610.81 234.33C606.94 234.33 603.11 236.16 603.11 241.02L603.11 245.82C603.11 250.64 606.94 252.51 610.74 252.51C614.51 252.51 617.65 250.72 617.65 246.26" fill="#7c3aed"/><path d="M651.70 252.13C652.93 252.13 653.46 251.23 653.46 250.53C653.46 249.71 652.93 248.85 651.70 248.85L651.10 248.85C650.79 248.85 650.62 248.81 650.38 248.57C651.19 247.42 651.76 246.19 652.09 245.20C652.44 244.10 652.07 243.13 651.06 242.83C650.05 242.52 649.03 242.94 648.66 244.08C648.51 244.54 648.31 244.98 648.09 245.42L646.11 242.61L646.48 242.32C648.92 240.54 649.89 238.98 649.89 237.22C649.89 234.75 647.69 233.17 644.68 233.17C641.64 233.17 639.20 234.84 639.20 237.48C639.20 238.65 639.84 239.68 640.83 241.24L641.40 242.06C639.55 243.62 638.01 245.14 638.01 247.58C638.01 250.77 640.52 252.51 643.58 252.51C645.32 252.51 646.81 251.91 648.04 251.01C648.86 251.91 649.50 252.13 650.88 252.13M644.08 248.77C642.90 248.77 642.06 248.26 642.06 247.12C642.06 246.26 642.68 245.58 643.47 244.85L645.87 248.11C645.27 248.52 644.66 248.77 644.08 248.77M643.20 237.85C643.20 237.13 643.73 236.45 644.61 236.45C645.45 236.45 646 236.95 646 237.59C646 238.25 645.60 238.87 644.68 239.61L644.22 239.97L643.86 239.46C643.51 238.93 643.20 238.47 643.20 237.85" fill="#7c3aed"/><path d="M677.73 239.57C677.75 238.67 678.39 238.25 679.45 238.25C680.77 238.25 681.54 238.56 682.07 238.91C682.26 239.06 682.75 239.20 683.08 239.20C683.91 239.20 684.68 238.84 684.97 237.94C685.30 236.89 684.60 235.79 683.58 235.24C682.77 234.80 681.69 234.36 679.40 234.36C676.39 234.36 674.23 235.72 673.46 238.07C672.72 240.38 673.44 243.40 676.76 244.78C677.03 244.89 677.47 245.07 677.82 245.18C679.65 245.75 681.10 246.39 681.08 247.23C681.05 248.19 680.33 248.61 679.12 248.61C677.62 248.61 676.94 248.35 676.43 248.04C676.02 247.82 675.64 247.47 674.87 247.49C674.28 247.51 673.64 247.80 673.31 248.28C672.65 249.29 673.05 250.48 673.88 251.16C675.07 252.11 677.03 252.51 678.99 252.51C682.99 252.51 685.45 250.68 685.65 247.56C685.83 244.72 684.13 242.80 681.56 241.88L680.48 241.51C678.72 240.91 677.71 240.38 677.73 239.57" fill="#7c3aed"/><path d="M697.86 238.91C697.86 238.38 697.99 238.27 698.49 238.27L704.06 238.27C705.36 238.27 705.84 237.28 705.84 236.38C705.84 235.48 705.34 234.42 704.06 234.42L696.78 234.42C694.14 234.42 693.35 235.37 693.35 237.90L693.35 248.66C693.35 251.19 694.14 252.13 696.78 252.13L704.28 252.13C705.56 252.13 706.06 251.08 706.06 250.17C706.06 249.27 705.58 248.28 704.28 248.28L698.49 248.28C697.99 248.28 697.86 248.17 697.86 247.64L697.86 245.07L703.86 245.07C705.16 245.07 705.64 244.08 705.64 243.20C705.64 242.32 705.14 241.26 703.86 241.26L697.86 241.26" fill="#7c3aed"/><path d="M713.65 245.84C713.65 250.90 717.78 252.55 721.02 252.55C724.25 252.55 728.39 250.90 728.39 245.84L728.39 241.02C728.39 235.96 724.25 234.31 721.02 234.31C717.72 234.31 713.65 235.96 713.65 241.02M723.90 245.97C723.90 247.73 722.27 248.79 721.02 248.79C719.76 248.79 718.13 247.73 718.13 245.97L718.13 240.89C718.13 238.95 719.63 238.07 721.02 238.07C722.40 238.07 723.90 238.95 723.90 240.89" fill="#7c3aed"/><path d="M763.62 240.43L763.62 240.16C763.62 236.23 760.82 234.42 757.02 234.42L752.97 234.42C750.33 234.42 749.54 235.37 749.54 237.90L749.54 252.13L754.05 252.13L754.05 246.21L756.86 246.21L760.16 252.13L765.14 252.13L760.96 245.11C762.52 244.12 763.62 242.52 763.62 240.43M754.05 238.84C754.05 238.32 754.18 238.21 754.69 238.21L756.91 238.21C758.38 238.21 759.15 239.15 759.15 240.27L759.15 240.43C759.15 241.55 758.38 242.50 756.91 242.50L754.05 242.50" fill="#7c3aed"/><path d="M770.81 252.13L775.56 252.13L776.39 249.40L782.05 249.40L782.91 252.13L787.75 252.13L782 236.16C781.59 234.97 780.42 234.33 779.30 234.33C778.11 234.33 776.90 234.93 776.46 236.16M779.23 240.21L780.90 245.69L777.54 245.69" fill="#7c3aed"/><path d="M799.97 235.65C799.42 234.71 798.19 234.27 797.13 234.38C796.12 234.49 794.93 235.21 794.93 236.58L794.93 252.13L798.94 252.13L798.94 241.62L804.31 251.12C804.86 252.07 806.13 252.48 807.19 252.40C808.18 252.31 809.34 251.63 809.34 250.28L809.34 236.42C809.34 235.08 808.40 234.33 807.34 234.33C806.29 234.33 805.34 235.08 805.34 236.42L805.34 245.20" fill="#7c3aed"/><path d="M817.68 252.13L822.12 252.13L822.12 247.60L823.88 245.64L827.80 252.13L832.90 252.13L826.76 242.43L830.92 237.79C831.78 236.82 831.49 235.37 830.48 234.71C829.58 234.11 828.15 234.22 827.29 235.28L822.12 241.62L822.12 236.56C822.12 235.10 821.06 234.33 819.90 234.33C818.75 234.33 817.68 235.10 817.68 236.56" fill="#7c3aed"/><path d="M839.69 252.13L844.27 252.13L844.27 236.53C844.27 235.02 843.21 234.33 841.98 234.33C840.75 234.33 839.69 235.02 839.69 236.53" fill="#7c3aed"/><path d="M857.62 235.65C857.07 234.71 855.83 234.27 854.78 234.38C853.77 234.49 852.58 235.21 852.58 236.58L852.58 252.13L856.58 252.13L856.58 241.62L861.95 251.12C862.50 252.07 863.78 252.48 864.83 252.40C865.82 252.31 866.99 251.63 866.99 250.28L866.99 236.42C866.99 235.08 866.04 234.33 864.99 234.33C863.93 234.33 862.98 235.08 862.98 236.42L862.98 245.20" fill="#7c3aed"/><path d="M889.64 245.07C889.64 242.61 888.98 241.79 886.39 241.79L884.38 241.79C883.13 241.79 882.62 242.83 882.62 243.71C882.62 244.59 883.11 245.55 884.38 245.55L885.11 245.55C885.53 245.55 885.62 245.62 885.62 246.06L885.62 246.32C885.62 247.89 884.23 248.61 882.73 248.61C881.15 248.61 879.59 247.64 879.59 245.62L879.59 241.22C879.59 239.20 881.26 238.23 882.80 238.23C883.77 238.23 884.54 238.32 885.07 238.51C885.40 238.65 885.77 238.89 886.28 238.98C887.02 239.11 887.84 238.80 888.28 238.03C888.81 237.11 888.37 236.05 887.46 235.41C886.61 234.80 884.82 234.33 882.80 234.33C878.93 234.33 875.10 236.16 875.10 241.02L875.10 245.82C875.10 250.64 878.93 252.51 882.73 252.51C886.50 252.51 889.64 250.72 889.64 246.26" fill="#7c3aed"/>

  <!-- 큰 브랜드명 -->
  <path d="M377 290.28C377.09 286.67 379.64 285 383.86 285C389.14 285 392.22 286.23 394.34 287.64C395.13 288.26 397.06 288.78 398.38 288.78C401.73 288.78 404.81 287.38 405.95 283.77C407.27 279.54 404.46 275.14 400.41 272.94C397.15 271.18 392.84 269.42 383.69 269.42C371.63 269.42 363.01 274.88 359.93 284.30C356.94 293.54 359.84 305.59 373.13 311.14C374.18 311.58 375.94 312.28 377.35 312.72C384.66 315.01 390.46 317.56 390.38 320.90C390.29 324.78 387.38 326.45 382.54 326.45C376.56 326.45 373.83 325.39 371.81 324.16C370.14 323.28 368.64 321.87 365.56 321.96C363.18 322.05 360.63 323.19 359.31 325.13C356.67 329.18 358.26 333.93 361.60 336.66C366.35 340.44 374.18 342.02 382.02 342.02C398.03 342.02 407.89 334.72 408.68 322.22C409.38 310.87 402.61 303.22 392.31 299.52L388 298.02C380.96 295.65 376.91 293.54 377 290.28M435.61 274.62C433.41 270.83 428.48 269.07 424.26 269.51C420.21 269.95 415.46 272.86 415.46 278.31L415.46 340.53L431.47 340.53L431.47 298.46L452.94 336.48C455.14 340.26 460.25 341.94 464.47 341.58C468.43 341.23 473.10 338.50 473.10 333.14L473.10 277.70C473.10 272.33 469.31 269.34 465.09 269.34C460.86 269.34 457.08 272.33 457.08 277.70L457.08 312.81M499.85 290.28C499.94 286.67 502.49 285 506.71 285C511.99 285 515.07 286.23 517.18 287.64C517.98 288.26 519.91 288.78 521.23 288.78C524.58 288.78 527.66 287.38 528.80 283.77C530.12 279.54 527.30 275.14 523.26 272.94C520 271.18 515.69 269.42 506.54 269.42C494.48 269.42 485.86 274.88 482.78 284.30C479.78 293.54 482.69 305.59 495.98 311.14C497.03 311.58 498.79 312.28 500.20 312.72C507.50 315.01 513.31 317.56 513.22 320.90C513.14 324.78 510.23 326.45 505.39 326.45C499.41 326.45 496.68 325.39 494.66 324.16C492.98 323.28 491.49 321.87 488.41 321.96C486.03 322.05 483.48 323.19 482.16 325.13C479.52 329.18 481.10 333.93 484.45 336.66C489.20 340.44 497.03 342.02 504.86 342.02C520.88 342.02 530.74 334.72 531.53 322.22C532.23 310.87 525.46 303.22 515.16 299.52L510.85 298.02C503.81 295.65 499.76 293.54 499.85 290.28M586.44 274.62C586.62 269.07 583.18 265.64 578.08 265.29C573.15 264.85 568.93 267.66 568.22 273.21C566.38 288.17 555.82 297.06 544.11 299.52C539.62 300.49 537.34 303.92 537.78 308.14C538.22 312.46 541.82 315.01 546.14 314.92C557.66 314.66 570.34 307.35 578.34 296.53C588.82 296.35 597.35 303.39 599.11 315.01L616.98 315.01C615.39 293.01 600.08 282.71 585.30 282.27C586 279.81 586.35 277.26 586.44 274.62M543.76 330.67C538.39 330.67 536.37 334.28 536.37 337.80C536.37 341.41 538.48 344.93 543.76 344.93L611.34 344.93C616.62 344.93 618.74 341.41 618.74 337.80C618.74 334.28 616.71 330.67 611.34 330.67L586.53 330.67L586.53 318.79C586.53 313.16 582.13 310.70 577.55 310.70C572.89 310.70 568.58 313.07 568.58 318.79L568.58 330.67M685.09 319.94C686.23 319.94 686.50 320.29 686.50 321.34L686.50 323.54L642.06 323.54C634.14 323.54 629.74 327.59 629.74 333.84L629.74 334.90C629.74 341.14 634.14 346.69 642.06 346.69L701.72 346.69C705.24 346.69 706.65 344.05 706.65 341.67C706.65 339.03 705.15 336.39 701.72 336.39L650.24 336.39C648.92 336.39 648.30 335.60 648.30 334.72L648.30 334.46C648.30 333.58 648.92 332.78 650.24 332.78L704.36 332.78L704.36 318.88C704.36 312.02 701.54 309.73 693.80 309.73L635.46 309.73C632.20 309.73 630.70 312.37 630.70 314.83C630.70 317.38 632.11 319.94 635.46 319.94M628.59 293.36C625.07 294.33 623.40 298.20 624.46 302.16C625.25 305.24 628.77 307.79 633.34 307.26C641.35 306.30 649.10 301.90 654.02 293.89C659.04 294.77 661.50 299.08 660.98 306.47L677.70 306.47C677.78 302.69 677.52 299.43 676.82 296.53L686.94 296.53L686.94 307.35L704.36 307.35L704.36 272.59C704.36 267.05 700.05 264.06 695.56 264.06C691.95 264.06 688.61 265.90 687.38 269.42L677.52 269.42C672.86 269.42 671.10 271.62 671.10 275.32C671.10 279.02 673.21 281.13 677.52 281.13L686.94 281.13L686.94 284.91L677.96 284.91C674.97 284.91 673.21 285.70 672.33 287.29C668.98 283.50 664.23 281.39 658.69 280.78C659.04 278.40 659.30 275.94 659.30 273.30L659.30 272.86C659.30 267.58 655.52 264.76 650.94 264.67C646.28 264.58 641.88 267.22 641.88 272.86L641.88 273.30C641.88 285.09 637.30 290.90 628.59 293.36M778.37 313.07L793.77 313.07L793.77 271.54C793.77 266.70 789.98 264.06 786.02 264.06C781.98 264.06 778.37 266.61 778.37 271.54L778.37 281.83L774.23 281.83L774.23 271.54C774.23 266.70 770.54 264.06 766.58 264.06C762.53 264.06 758.92 266.61 758.92 271.54L758.92 313.07L774.23 313.07L774.23 295.38L778.37 295.38M774.32 330.41C775.73 330.41 776.43 331.20 776.43 332.52L776.43 346.69L794.21 346.69L794.21 330.06C794.21 319.50 792.18 316.50 781.18 316.50L724.86 316.50C719.94 316.50 717.21 319.32 717.21 323.46C717.21 327.59 719.94 330.41 724.86 330.41M751 311.93C755.14 311.93 757.25 308.76 757.25 305.59C757.25 302.51 755.58 299.70 751.35 299.52L751.35 288.08C751.35 283.33 748.27 281.57 744.14 281.57C740 281.57 737.01 283.33 737.01 288.08L737.01 299.52L732.87 299.52L732.87 288.08C732.87 283.33 729.79 281.57 725.66 281.57C721.52 281.57 718.53 283.33 718.53 288.08L718.53 299.52C714.22 299.70 712.54 302.51 712.54 305.59C712.54 308.76 714.66 311.93 718.79 311.93M749.94 279.19C754.08 279.19 756.19 276.11 756.19 272.77C756.19 269.42 754.43 266.26 749.94 266.26L719.67 266.26C715.18 266.26 713.42 269.42 713.42 272.77C713.42 276.11 715.54 279.19 719.67 279.19M807.76 330.67C802.39 330.67 800.37 334.28 800.37 337.80C800.37 341.41 802.48 344.93 807.76 344.93L875.34 344.93C880.62 344.93 882.74 341.41 882.74 337.80C882.74 334.28 880.71 330.67 875.34 330.67L850.53 330.67L850.53 318.18L873.06 318.18C877.90 318.18 879.83 314.74 879.83 311.40C879.83 308.14 877.98 304.62 873.06 304.62L824.83 304.62C823.07 304.62 822.19 304.01 822.19 302.25L822.19 299.08L871.12 299.08C875.96 299.08 877.90 295.74 877.90 292.48C877.90 289.31 876.05 285.88 871.12 285.88L822.19 285.88L822.19 282.62C822.19 281.04 823.07 280.34 824.83 280.34L871.65 280.34C876.49 280.34 878.42 276.90 878.42 273.56C878.42 270.30 876.58 266.70 871.65 266.70L818.32 266.70C808.11 266.70 804.33 270.92 804.33 280.42L804.33 304.45C804.33 313.95 808.11 318.18 818.32 318.18L832.58 318.18L832.58 330.67M908.43 315.36C908.43 312.28 909.40 311.58 912.48 311.58L939.41 311.58L939.41 280.78C939.41 270.74 936.15 267.31 924.01 267.31L899.10 267.31C893.74 267.31 891.62 271.18 891.62 274.70C891.62 278.31 893.82 282.01 899.10 282.01L919.34 282.01C921.37 282.01 921.72 283.33 921.72 284.47L921.72 297.23L905.97 297.23C894.97 297.23 890.74 301.02 890.74 312.02L890.74 328.03C890.74 339.03 894.97 342.99 905.97 342.99L938.44 342.99C943.72 342.99 945.92 339.38 945.92 335.78C945.92 332.26 943.81 328.56 938.44 328.56L912.48 328.56C909.40 328.56 908.43 327.86 908.43 324.78M968.36 346.69L968.36 272.77C968.36 267.05 964.22 264.06 959.56 264.06C954.90 264.06 950.76 267.05 950.76 272.77L950.76 346.69" fill="#111827"/>

  <!-- 캐치카피 -->
  <path d="M364 387.66C364.04 386.18 365.08 385.50 366.81 385.50C368.97 385.50 370.23 386 371.09 386.58C371.42 386.83 372.21 387.05 372.75 387.05C374.12 387.05 375.38 386.47 375.84 385C376.38 383.27 375.23 381.47 373.58 380.57C372.24 379.85 370.48 379.13 366.74 379.13C361.80 379.13 358.28 381.36 357.02 385.21C355.79 388.99 356.98 393.92 362.42 396.19C362.85 396.37 363.57 396.66 364.14 396.84C367.13 397.78 369.51 398.82 369.47 400.19C369.44 401.77 368.25 402.46 366.27 402.46C363.82 402.46 362.70 402.02 361.88 401.52C361.19 401.16 360.58 400.58 359.32 400.62C358.35 400.66 357.30 401.12 356.76 401.92C355.68 403.57 356.33 405.52 357.70 406.63C359.64 408.18 362.85 408.83 366.05 408.83C372.60 408.83 376.64 405.84 376.96 400.73C377.25 396.08 374.48 392.95 370.26 391.44L368.50 390.83C365.62 389.86 363.96 388.99 364 387.66M387.98 381.25C387.08 379.70 385.06 378.98 383.33 379.16C381.68 379.34 379.73 380.53 379.73 382.76L379.73 408.22L386.28 408.22L386.28 391.01L395.07 406.56C395.97 408.11 398.06 408.79 399.78 408.65C401.40 408.50 403.31 407.39 403.31 405.19L403.31 382.51C403.31 380.32 401.76 379.09 400.04 379.09C398.31 379.09 396.76 380.32 396.76 382.51L396.76 396.88M414.26 387.66C414.29 386.18 415.34 385.50 417.06 385.50C419.22 385.50 420.48 386 421.35 386.58C421.67 386.83 422.46 387.05 423 387.05C424.37 387.05 425.63 386.47 426.10 385C426.64 383.27 425.49 381.47 423.83 380.57C422.50 379.85 420.74 379.13 416.99 379.13C412.06 379.13 408.53 381.36 407.27 385.21C406.05 388.99 407.24 393.92 412.67 396.19C413.10 396.37 413.82 396.66 414.40 396.84C417.39 397.78 419.76 398.82 419.73 400.19C419.69 401.77 418.50 402.46 416.52 402.46C414.08 402.46 412.96 402.02 412.13 401.52C411.45 401.16 410.84 400.58 409.58 400.62C408.60 400.66 407.56 401.12 407.02 401.92C405.94 403.57 406.59 405.52 407.96 406.63C409.90 408.18 413.10 408.83 416.31 408.83C422.86 408.83 426.89 405.84 427.22 400.73C427.50 396.08 424.73 392.95 420.52 391.44L418.76 390.83C415.88 389.86 414.22 388.99 414.26 387.66" fill="#374151"/><path d="M461.34 409.37L461.34 384.06C461.34 379.52 460.48 378.12 455.76 378.12L447.34 378.12C442.62 378.12 441.76 379.52 441.76 384.06L441.76 403.43C441.76 407.96 442.62 409.37 447.34 409.37M465.27 410.74L472.40 410.74L472.40 395.80L473.58 395.80C475.74 395.80 476.43 394.14 476.43 392.66C476.43 391.22 475.78 389.53 473.58 389.53L472.40 389.53L472.40 380.42C472.40 378.16 470.67 376.93 468.83 376.93C466.96 376.93 465.27 378.12 465.27 380.42M448.74 385.03C448.74 384.31 448.89 383.84 449.68 383.84L453.39 383.84C454.18 383.84 454.36 384.31 454.36 385.03L454.36 403.64L449.93 403.64C449 403.64 448.74 403.21 448.74 402.42M479.38 403.64C477.44 403.86 476.61 405.12 476.64 406.81C476.68 408.76 478.44 409.62 480.35 409.55C486.72 409.26 492.56 405.55 493.28 396.08L495.58 396.08L495.58 410.74L501.88 410.74L501.88 379.99C501.88 378.01 500.30 376.93 498.68 376.93C497.02 376.93 495.58 377.98 495.58 379.99L495.58 390.25L493.38 390.25L493.38 383.20C493.38 379.52 492.09 378.30 488.02 378.30L480.10 378.30C477.90 378.30 477.08 379.88 477.08 381.32C477.08 382.80 477.94 384.35 480.10 384.35L486.08 384.35C486.65 384.35 486.98 384.74 486.98 385.25L486.98 389.93L479.85 389.93C477.65 389.93 476.82 391.51 476.82 392.95C476.82 394.43 477.69 395.98 479.85 395.98L486.87 395.98C486.33 400.55 483.99 403.14 479.38 403.64M503.61 410.74L510.02 410.74L510.02 379.99C510.02 378.01 508.43 376.93 506.81 376.93C505.16 376.93 503.61 377.98 503.61 379.99M538.49 410.84C543.42 410.84 545.80 408.22 545.80 404.36C545.80 400.55 543.42 397.81 538.49 397.81L522.22 397.81C517.22 397.81 514.91 400.62 514.91 404.36C514.91 408.14 517.22 410.84 522.22 410.84M518.66 377.98C514.84 377.98 513.76 379.24 513.76 382.80L513.76 391.48C513.76 395.04 514.84 396.30 518.66 396.30L534.17 396.30C535.97 396.30 536.66 395 536.66 393.78C536.66 392.63 535.97 391.37 534.17 391.37L521.82 391.37C521.18 391.37 520.85 391.15 520.85 390.50L520.85 389.60L531.98 389.60C533.56 389.60 534.21 388.27 534.21 387.23C534.21 386.15 533.60 384.78 531.98 384.78L520.85 384.78L520.85 383.84C520.85 383.27 521.18 383.02 521.82 383.02L532.16 383.02C533.92 383.02 534.60 381.72 534.60 380.57C534.60 379.34 533.96 377.98 532.16 377.98M538.17 396.73L545.44 396.73L545.44 380.50C545.44 378.19 543.68 376.93 541.80 376.93C539.90 376.93 538.17 378.16 538.17 380.50M524.16 405.98C522.69 405.98 522.22 405.26 522.22 404.36C522.22 403.46 522.69 402.82 524.16 402.82L536.55 402.82C538.02 402.82 538.49 403.46 538.49 404.36C538.49 405.26 538.02 405.98 536.55 405.98" fill="#374151"/><path d="M560.49 393.85C560.49 396.08 561.93 397.49 564.34 397.49C566.75 397.49 568.19 396.05 568.19 393.85C568.19 391.66 566.75 390.22 564.34 390.22C561.93 390.22 560.49 391.62 560.49 393.85" fill="#374151"/><path d="M615.17 410.74L615.17 402.35C615.17 398.17 614.38 396.88 610.02 396.88L589.83 396.88C585.47 396.88 584.68 398.17 584.68 402.35L584.68 405.26C584.68 409.44 585.47 410.74 589.83 410.74M586.34 389.93C584.61 389.86 583.31 390.68 583.17 392.38C583.02 394.28 584.32 395.54 585.94 395.69C592.89 396.37 599.22 394.50 601.71 389.60L607.83 389.60L607.83 395.54L614.99 395.54L614.99 380.42C614.99 378.16 613.23 376.93 611.39 376.93C609.52 376.93 607.83 378.12 607.83 380.42L607.83 383.99L602.82 383.99L602.82 382.84C602.82 379.60 601.53 377.98 597.60 377.98L586.73 377.98C584.61 377.98 583.78 379.38 583.78 380.78C583.78 382.19 584.64 383.59 586.73 383.59L594.94 383.59C595.48 383.59 595.77 383.81 595.77 384.38L595.77 384.74C595.77 388.85 591.66 390.18 586.34 389.93M591.77 404.69L591.77 402.85C591.77 402.06 591.92 401.92 592.64 401.92L607.18 401.92C607.90 401.92 608.08 402.06 608.08 402.85L608.08 405.66L592.64 405.66C591.92 405.66 591.77 405.55 591.77 404.69M645.23 396.77L651.57 396.77L651.57 379.99C651.57 378.01 650.02 376.93 648.40 376.93C646.74 376.93 645.23 377.98 645.23 379.99L645.23 384.35L643.61 384.35L643.61 379.99C643.61 378.01 642.10 376.93 640.48 376.93C638.82 376.93 637.38 377.98 637.38 379.99L637.38 396.77L643.61 396.77L643.61 389.75L645.23 389.75M643.61 403.86C644.19 403.86 644.48 404.18 644.48 404.72L644.48 410.74L651.75 410.74L651.75 403.72C651.75 399.40 650.92 398.17 646.42 398.17L623.38 398.17C621.36 398.17 620.25 399.32 620.25 401.02C620.25 402.71 621.36 403.86 623.38 403.86M620.07 391.12C618.59 391.69 617.98 392.84 618.27 394.50C618.52 396.01 620 396.95 621.80 396.70C624.89 396.26 627.45 394.36 628.96 390.97C630.11 391.94 630.47 393.85 630.04 396.12L636.48 396.12C637.02 389.60 634.76 386.22 630.44 385.32C630.51 384.38 630.58 383.41 630.58 382.37L630.58 380.93C630.58 378.62 629 377.58 627.16 377.58C625.32 377.58 623.88 378.62 623.88 380.93L623.88 382.37C623.88 387.41 622.55 390.14 620.07 391.12" fill="#374151"/><path d="M667.98 403.79C667.98 407.68 670.43 410.84 675.44 410.84L690.66 410.84C695.60 410.84 698.12 407.75 698.12 403.79C698.12 399.83 695.60 396.73 690.66 396.73L675.44 396.73C670.43 396.73 667.98 399.90 667.98 403.79M667.59 389.93C666.15 390.32 665.43 391.94 665.90 393.56C666.18 394.82 667.66 395.87 669.53 395.69C672.92 395.33 676.19 393.24 678.24 389.57C680.40 390.04 681.41 391.94 681.20 395.04L688.14 395.04C688.40 388.06 685.08 384.71 680.04 384.06C680.22 383.05 680.30 382.01 680.30 380.86L680.30 380.64C680.30 378.48 678.71 377.33 676.84 377.29C674.93 377.26 673.13 378.34 673.13 380.64L673.13 380.86C673.13 386.04 671.30 388.88 667.59 389.93M690.41 395.87L697.54 395.87L697.54 389.64L698.66 389.64C700.82 389.64 701.50 388.02 701.50 386.54C701.50 385.10 700.85 383.45 698.66 383.45L697.54 383.45L697.54 380.50C697.54 378.19 695.85 376.93 693.98 376.93C692.07 376.93 690.41 378.16 690.41 380.50M675.29 403.79C675.29 402.89 675.76 401.77 677.34 401.77L688.76 401.77C690.34 401.77 690.81 402.89 690.81 403.79C690.81 404.69 690.34 405.80 688.76 405.80L677.34 405.80C675.76 405.80 675.29 404.69 675.29 403.79M717.77 392.23C722.45 392.23 724.86 389.10 724.86 385.21L724.86 385.10C724.86 381.22 722.45 378.08 717.77 378.08L709.28 378.08C704.60 378.08 702.18 381.22 702.18 385.10L702.18 385.21C702.18 389.10 704.60 392.23 709.28 392.23M734.51 410.74L734.51 380.50C734.51 378.16 732.82 376.93 730.91 376.93C729 376.93 727.31 378.16 727.31 380.50L727.31 410.74M706.54 405.37C704.88 405.55 703.98 406.52 704.02 408.29C704.06 410.02 705.75 411.06 707.73 411.02C713.02 410.95 718.10 407.86 718.10 401.66L718.10 400.37L723.10 400.37C725.26 400.37 726.12 398.89 726.12 397.38C726.12 395.90 725.30 394.36 723.10 394.36L704.85 394.36C702.65 394.36 701.79 395.90 701.79 397.38C701.79 398.89 702.69 400.37 704.85 400.37L710.75 400.37L710.75 401.66C710.75 403.97 708.77 405.12 706.54 405.37M709.38 385.07C709.38 384.13 710 383.30 711.65 383.30L715.43 383.30C717.09 383.30 717.66 384.13 717.66 385.07L717.66 385.25C717.66 386.18 717.09 386.98 715.43 386.98L711.65 386.98C710 386.98 709.38 386.18 709.38 385.25M748.08 391.08C747.26 391.08 747.04 390.90 747.04 390.07L747.04 381.43C747.04 379.06 745.38 377.94 743.40 377.94C741.46 377.94 739.70 379.02 739.70 381.43L739.70 391.62C739.70 395.72 740.92 397.24 745.20 397.24L750.96 397.24L750.96 404.18L740.81 404.18C738.62 404.18 737.79 405.66 737.79 407.10C737.79 408.58 738.65 410.02 740.81 410.02L768.46 410.02C770.62 410.02 771.48 408.58 771.48 407.10C771.48 405.66 770.66 404.18 768.46 404.18L758.31 404.18L758.31 397.24L766.95 397.24C769 397.24 769.83 395.58 769.83 394.10C769.83 392.66 769.04 391.08 766.95 391.08M805.18 410.74C806.55 410.74 807.02 409.66 807.02 408.83C807.02 407.86 806.51 406.85 805.18 406.85L783.15 406.85C782.68 406.85 782.50 406.63 782.50 406.27C782.50 405.98 782.68 405.66 783.15 405.66L806.01 405.66L806.01 400.58C806.01 398.46 805.11 397.42 802.12 397.42L794.27 397.42L794.27 396.19L804.93 396.19C806.76 396.19 807.48 395.22 807.48 393.92C807.48 392.74 806.80 391.66 804.93 391.66L776.31 391.66C774.47 391.66 773.79 392.74 773.79 393.92C773.79 395.22 774.51 396.19 776.31 396.19L787 396.19L787 397.42L777.06 397.42C775.70 397.42 775.16 398.42 775.16 399.32C775.16 400.22 775.80 401.20 777.06 401.20L797.94 401.20C798.45 401.20 798.59 401.30 798.59 401.74L798.59 402.38L779.26 402.38C776.27 402.38 774.80 403.82 774.80 406.27L774.80 406.49C774.80 408.86 776.31 410.74 779.26 410.74M777.96 378.91C775.98 378.91 775.23 379.92 775.23 381.22C775.23 382.55 776.02 383.56 777.96 383.56L787.07 383.56C785.78 385.39 782.14 386.22 777.86 385.79C776.27 385.64 774.90 386.08 774.58 387.55C774.22 389.21 775.23 390.43 776.96 390.65C780.88 391.12 785.52 390.72 789.02 389.10C793.62 388.02 798.38 388.42 799.92 390.79L807.23 390.79C805.61 385.32 800.82 384.02 793.62 384.85C793.80 384.46 793.95 384.02 794.02 383.56L803.31 383.56C805.25 383.56 806.04 382.55 806.04 381.22C806.04 379.92 805.29 378.91 803.31 378.91L794.38 378.91C794.09 377.26 792.69 376.39 790.71 376.39C788.73 376.39 787.29 377.22 787 378.91" fill="#374151"/><path d="M829.16 381.32C828.47 383.23 826.53 384.02 824.22 384.31C822.78 384.49 821.63 385.57 821.63 387.23C821.63 389.21 823.32 390.25 825.34 390.25L828.72 390.25L828.72 408.22L835.92 408.22L835.92 382.73C835.92 380.35 834.41 379.09 832.32 379.09C830.81 379.09 829.70 379.85 829.16 381.32M862.67 396.52L862.67 390.14L867.39 390.14L867.39 402.38L874.55 402.38L874.55 380.42C874.55 378.16 872.79 376.93 870.95 376.93C869.08 376.93 867.39 378.12 867.39 380.42L867.39 384.60L862.67 384.60L862.67 381.29C862.67 378.91 861.27 377.87 859.29 377.87C857.31 377.87 855.98 378.88 855.98 381.29L855.98 382.08L849.64 382.08L849.64 381.29C849.64 378.91 848.34 377.87 846.36 377.87C844.38 377.87 842.87 378.88 842.87 381.29L842.87 391.37C842.87 395.15 843.88 396.52 847.84 396.52M872.46 410.74C874.62 410.74 875.49 409.40 875.49 407.93C875.49 406.49 874.66 405.16 872.46 405.16L852.92 405.16C852.12 405.16 851.94 405.05 851.94 404.26L851.94 401.99C851.94 399.58 850.36 398.42 848.34 398.42C846.33 398.42 844.64 399.54 844.64 401.99L844.64 405.48C844.64 409.33 845.72 410.74 849.75 410.74M850.61 391.19C849.82 391.19 849.64 391.08 849.64 390.29L849.64 387.05L855.98 387.05L855.98 391.19M885.21 388.16C885.21 396.19 883.12 400.62 878.55 403.46C877.11 404.36 876.78 406.06 877.47 407.39C878.19 408.79 880.38 409.30 881.93 408.65C885.68 407.06 888.63 403.93 890.39 399.36C892.62 400.91 893.67 403.90 893.20 408.72L899.97 408.72C900.36 398.82 897.16 394.79 891.94 392.99C892.12 391.55 892.23 390 892.23 388.34L892.23 384.46L897.05 384.46C899.21 384.46 900.04 382.87 900.04 381.40C900.04 379.96 899.25 378.30 897.05 378.30L880.38 378.30C878.19 378.30 877.32 379.96 877.32 381.40C877.32 382.87 878.22 384.46 880.38 384.46L885.21 384.46M910.55 410.74L910.55 380.50C910.55 378.16 908.86 376.93 906.95 376.93C905.04 376.93 903.35 378.16 903.35 380.50L903.35 410.74" fill="#374151"/>

  <!-- 플랫폼 -->
  <path d="M374.43 473.67C375.75 473.67 376.27 472.86 376.27 471.96C376.27 471.08 375.77 470.26 374.43 470.26L362.48 470.26C362 470.26 361.89 470.20 361.89 469.71L361.89 468.22C361.89 466.74 360.92 466.04 359.69 466.04C358.45 466.04 357.42 466.72 357.42 468.22L357.42 470.46C357.42 472.81 358.08 473.67 360.54 473.67M362.48 465.16C366.22 465.16 368.77 463.55 368.77 459.99L368.77 458.51C368.77 454.95 366.22 453.32 362.48 453.32C358.74 453.32 356.19 454.95 356.19 458.51L356.19 459.99C356.19 463.55 358.74 465.16 362.48 465.16M371.26 468.57L375.70 468.57L375.70 455.19C375.70 453.78 374.62 453.01 373.48 453.01C372.31 453.01 371.26 453.76 371.26 455.19M362.48 461.92C361.31 461.92 360.50 461.40 360.50 460.16L360.50 458.34C360.50 457.13 361.31 456.56 362.48 456.56C363.65 456.56 364.46 457.13 364.46 458.34L364.46 460.16C364.46 461.40 363.65 461.92 362.48 461.92M390.22 455.65C390.27 454.27 389.43 453.43 388.15 453.32C386.92 453.23 385.84 453.92 385.67 455.30C385.21 459 382.54 461.46 379.64 462.10C378.52 462.34 377.95 463.20 378.06 464.26C378.17 465.33 379.07 465.97 380.15 465.95C383.03 465.88 386.17 463.99 388.18 461.24C390.82 461.15 392.99 462.96 393.39 465.95L397.86 465.95C397.44 460.34 393.63 457.77 389.91 457.68C390.09 457.02 390.20 456.34 390.22 455.65M379.60 469.51C378.23 469.51 377.70 470.48 377.70 471.38C377.70 472.31 378.25 473.23 379.60 473.23L396.40 473.23C397.75 473.23 398.30 472.31 398.30 471.38C398.30 470.48 397.77 469.51 396.40 469.51M411.89 472.79C413.15 472.79 413.54 471.82 413.54 470.97C413.54 470.13 413.17 469.12 411.89 469.12L405.29 469.12C404.90 469.12 404.72 468.99 404.72 468.48L404.72 464.98L410.46 464.98C411.72 464.98 412.22 464.08 412.22 463.18C412.22 462.25 411.74 461.35 410.46 461.35L404.72 461.35L404.72 458.14C404.72 457.63 404.90 457.50 405.29 457.50L410.88 457.50C412.13 457.50 412.53 456.49 412.53 455.63C412.53 454.80 412.16 453.78 410.88 453.78L403.77 453.78C400.91 453.78 400.39 454.44 400.39 457.19L400.39 469.36C400.39 472.11 400.91 472.79 403.77 472.79M414.69 473.67L419.04 473.67L419.04 464.54L419.79 464.54C421.11 464.54 421.53 463.53 421.53 462.63C421.53 461.75 421.13 460.71 419.79 460.71L419.04 460.71L419.04 455.15C419.04 453.76 417.99 453.01 416.86 453.01C415.72 453.01 414.69 453.74 414.69 455.15" fill="#6b7280"/><path d="M428.90 463.35C428.90 464.72 429.78 465.58 431.25 465.58C432.73 465.58 433.61 464.70 433.61 463.35C433.61 462.01 432.73 461.13 431.25 461.13C429.78 461.13 428.90 461.99 428.90 463.35" fill="#6b7280"/><path d="M462.29 458.34C462.29 455.72 460.51 453.43 457.28 453.43L447.75 453.43C444.52 453.43 442.74 455.72 442.74 458.34L442.74 458.51C442.74 461.13 444.52 463.42 447.75 463.42L457.28 463.42C460.49 463.42 462.29 461.15 462.29 458.54M445.55 471.08C444.67 471.12 444.10 471.65 444.06 472.46C443.99 473.74 445.42 474.20 446.45 474.18C448.96 474.11 451.16 472.53 451.16 469.16L451.16 468.41L454.68 468.41L454.68 473.78L459.15 473.78L459.15 468.41L460.95 468.41C462.27 468.41 462.80 467.53 462.80 466.63C462.80 465.75 462.29 464.83 460.95 464.83L444.06 464.83C442.71 464.83 442.21 465.75 442.21 466.63C442.21 467.53 442.74 468.41 444.06 468.41L446.87 468.41L446.87 469.16C446.87 470.28 446.28 471.03 445.55 471.08M457.74 458.56C457.74 459.35 457.17 459.90 456 459.90L449.03 459.90C447.84 459.90 447.29 459.35 447.29 458.56L447.29 458.32C447.29 457.52 447.84 456.95 449.03 456.95L456 456.95C457.17 456.95 457.74 457.52 457.74 458.32M468.37 453.48C466.06 453.48 465.20 454.44 465.20 456.58L465.20 461.46C465.20 463.62 466.06 464.54 468.37 464.54L482.53 464.54C483.63 464.54 484.07 463.79 484.07 463.05C484.07 462.30 483.66 461.53 482.53 461.53L470.26 461.53C469.86 461.53 469.66 461.40 469.66 461L469.66 460.52L482.05 460.52C483.15 460.52 483.59 459.79 483.59 459.04C483.59 458.29 483.17 457.57 482.05 457.57L469.66 457.57L469.66 457.06C469.66 456.71 469.86 456.53 470.26 456.53L482.20 456.53C483.30 456.53 483.72 455.79 483.72 455.04C483.72 454.29 483.30 453.48 482.20 453.48M467.38 471.03C466.56 471.14 465.90 471.78 466.06 472.77C466.21 473.76 467.22 474.27 468.43 474.16C470.83 473.96 473.16 472.51 473.16 469.49L473.16 469.12L476.68 469.12L476.68 473.78L481.15 473.78L481.15 469.12L482.95 469.12C484.27 469.12 484.80 468.30 484.80 467.40C484.80 466.52 484.29 465.60 482.95 465.60L466.06 465.60C464.71 465.60 464.21 466.52 464.21 467.40C464.21 468.30 464.74 469.12 466.06 469.12L468.83 469.12L468.83 469.49C468.83 470.50 468.10 470.94 467.38 471.03M491.82 455.41C491.82 454.03 490.67 453.41 489.57 453.41C488.41 453.41 487.31 453.94 487.31 455.37L487.31 462.67C487.31 465.22 487.84 466.06 490.50 466.06L505.66 466.06L505.66 455.37C505.66 453.96 504.53 453.41 503.41 453.41C502.25 453.41 501.17 453.94 501.17 455.37L501.17 456.40L491.82 456.40M488.10 469.51C486.74 469.51 486.21 470.48 486.21 471.38C486.21 472.31 486.76 473.23 488.10 473.23L504.91 473.23C506.25 473.23 506.80 472.31 506.80 471.38C506.80 470.48 506.27 469.51 504.91 469.51M492.50 462.50C491.97 462.50 491.82 462.28 491.82 461.84L491.82 459.83L501.17 459.83L501.17 462.50" fill="#6b7280"/><path d="M515.40 463.35C515.40 464.72 516.28 465.58 517.76 465.58C519.23 465.58 520.11 464.70 520.11 463.35C520.11 462.01 519.23 461.13 517.76 461.13C516.28 461.13 515.40 461.99 515.40 463.35" fill="#6b7280"/><path d="M532.34 453.65C530.01 453.65 529.35 454.42 529.35 456.60L529.35 462.06C529.35 464.23 530.01 465 532.34 465L541.82 465C542.92 465 543.34 464.19 543.34 463.44C543.34 462.74 542.92 461.97 541.82 461.97L534.23 461.97C533.84 461.97 533.64 461.84 533.64 461.44L533.64 460.85L540.48 460.85C541.45 460.85 541.85 460.01 541.85 459.37C541.85 458.71 541.47 457.88 540.48 457.88L533.64 457.88L533.64 457.26C533.64 456.91 533.84 456.75 534.23 456.75L540.59 456.75C541.67 456.75 542.09 455.94 542.09 455.24C542.09 454.49 541.69 453.65 540.59 453.65M543.85 469.60C544.20 469.60 544.38 469.80 544.38 470.13L544.38 473.67L548.82 473.67L548.82 469.51C548.82 466.87 548.31 466.13 545.56 466.13L531.95 466.13C530.71 466.13 530.03 466.83 530.03 467.86C530.03 468.90 530.71 469.60 531.95 469.60M544.27 465.36L548.71 465.36L548.71 455.19C548.71 453.78 547.63 453.01 546.49 453.01C545.32 453.01 544.27 453.76 544.27 455.19M554.10 453.26C552.30 453.26 551.64 453.98 551.64 455.68L551.64 459.70C551.64 461.37 552.30 462.10 554.10 462.10L558.72 462.10L558.72 463.02L552.52 463.02C551.20 463.02 550.71 463.75 550.71 464.63C550.71 465.51 551.22 466.24 552.52 466.24L569.50 466.24C570.80 466.24 571.30 465.51 571.30 464.63C571.30 463.75 570.82 463.02 569.50 463.02L563.21 463.02L563.21 462.10L569.41 462.10C570.25 462.10 570.60 461.46 570.60 460.85C570.60 460.32 570.27 459.64 569.41 459.64L556.43 459.64C556.12 459.64 556.01 459.57 556.01 459.26L556.01 458.84L569.02 458.84C569.90 458.84 570.23 458.27 570.23 457.70C570.23 457.13 569.90 456.56 569.02 456.56L556.01 456.56L556.01 456.14C556.01 455.85 556.12 455.76 556.43 455.76L569.15 455.76C569.98 455.76 570.36 455.10 570.36 454.51C570.36 453.94 570.01 453.26 569.15 453.26M565.50 470.24C565.85 470.24 565.98 470.37 565.98 470.72L565.98 473.67L570.38 473.67L570.38 470.28C570.38 467.73 569.90 467.12 567.23 467.12L553.42 467.12C552.23 467.12 551.57 467.71 551.57 468.66C551.57 469.60 552.23 470.24 553.42 470.24" fill="#6b7280"/><path d="M579.91 463.35C579.91 464.72 580.79 465.58 582.26 465.58C583.73 465.58 584.61 464.70 584.61 463.35C584.61 462.01 583.73 461.13 582.26 461.13C580.79 461.13 579.91 461.99 579.91 463.35" fill="#6b7280"/><path d="M595.15 469.14C594.05 469.25 593.52 469.98 593.52 470.90C593.52 472.20 594.56 472.84 595.64 472.79C601.40 472.51 605.58 469.91 605.58 462.01L605.58 457.06C605.58 455.02 604.61 453.85 602.13 453.85L595.64 453.85C594.29 453.85 593.79 454.86 593.79 455.74C593.79 456.64 594.32 457.66 595.64 457.66L600.74 457.66C601.09 457.66 601.29 457.90 601.29 458.21L601.29 460.96L595.44 460.96C594.10 460.96 593.59 461.92 593.59 462.80C593.59 463.71 594.12 464.67 595.44 464.67L601.03 464.67C600.32 467.97 598.14 468.83 595.15 469.14M608.22 473.67L612.58 473.67L612.58 464.54L613.30 464.54C614.62 464.54 615.04 463.53 615.04 462.63C615.04 461.75 614.64 460.71 613.30 460.71L612.58 460.71L612.58 455.15C612.58 453.76 611.52 453.01 610.40 453.01C609.25 453.01 608.22 453.74 608.22 455.15M617.15 469.14C616.05 469.25 615.52 469.98 615.52 470.90C615.52 472.20 616.56 472.84 617.64 472.79C623.40 472.51 627.58 469.91 627.58 462.01L627.58 457.06C627.58 455.02 626.61 453.85 624.13 453.85L617.64 453.85C616.29 453.85 615.79 454.86 615.79 455.74C615.79 456.64 616.32 457.66 617.64 457.66L622.74 457.66C623.09 457.66 623.29 457.90 623.29 458.21L623.29 460.96L617.44 460.96C616.10 460.96 615.59 461.92 615.59 462.80C615.59 463.71 616.12 464.67 617.44 464.67L623.03 464.67C622.32 467.97 620.14 468.83 617.15 469.14M630.22 473.67L634.58 473.67L634.58 464.54L635.30 464.54C636.62 464.54 637.04 463.53 637.04 462.63C637.04 461.75 636.64 460.71 635.30 460.71L634.58 460.71L634.58 455.15C634.58 453.76 633.52 453.01 632.40 453.01C631.25 453.01 630.22 453.74 630.22 455.15M639.06 469.67C637.72 469.67 637.22 470.57 637.22 471.45C637.22 472.35 637.74 473.23 639.06 473.23L655.96 473.23C657.28 473.23 657.81 472.35 657.81 471.45C657.81 470.57 657.30 469.67 655.96 469.67L649.76 469.67L649.76 465.55L651.41 465.55C655.10 465.55 657.17 462.87 657.17 459.81L657.17 459.33C657.17 456.27 655.10 453.56 651.41 453.56L643.62 453.56C639.92 453.56 637.85 456.27 637.85 459.33L637.85 459.81C637.85 462.87 639.92 465.55 643.62 465.55L645.27 465.55L645.27 469.67M652.59 459.86C652.59 461.07 651.67 461.99 650.22 461.99L644.81 461.99C643.35 461.99 642.43 461.07 642.43 459.86L642.43 459.28C642.43 458.07 643.35 457.15 644.81 457.15L650.22 457.15C651.67 457.15 652.59 458.07 652.59 459.28M662.60 453.26C660.80 453.26 660.14 453.98 660.14 455.68L660.14 459.70C660.14 461.37 660.80 462.10 662.60 462.10L667.22 462.10L667.22 463.02L661.02 463.02C659.70 463.02 659.22 463.75 659.22 464.63C659.22 465.51 659.72 466.24 661.02 466.24L678 466.24C679.30 466.24 679.81 465.51 679.81 464.63C679.81 463.75 679.32 463.02 678 463.02L671.71 463.02L671.71 462.10L677.92 462.10C678.75 462.10 679.10 461.46 679.10 460.85C679.10 460.32 678.77 459.64 677.92 459.64L664.94 459.64C664.63 459.64 664.52 459.57 664.52 459.26L664.52 458.84L677.52 458.84C678.40 458.84 678.73 458.27 678.73 457.70C678.73 457.13 678.40 456.56 677.52 456.56L664.52 456.56L664.52 456.14C664.52 455.85 664.63 455.76 664.94 455.76L677.65 455.76C678.49 455.76 678.86 455.10 678.86 454.51C678.86 453.94 678.51 453.26 677.65 453.26M674 470.24C674.35 470.24 674.48 470.37 674.48 470.72L674.48 473.67L678.88 473.67L678.88 470.28C678.88 467.73 678.40 467.12 675.74 467.12L661.92 467.12C660.73 467.12 660.07 467.71 660.07 468.66C660.07 469.60 660.73 470.24 661.92 470.24" fill="#6b7280"/><path d="M688.41 463.35C688.41 464.72 689.29 465.58 690.76 465.58C692.24 465.58 693.12 464.70 693.12 463.35C693.12 462.01 692.24 461.13 690.76 461.13C689.29 461.13 688.41 461.99 688.41 463.35" fill="#6b7280"/><path d="M714.24 455.65C714.28 454.27 713.45 453.43 712.17 453.32C710.94 453.23 709.86 453.92 709.68 455.30C709.22 459 706.56 461.46 703.66 462.10C702.53 462.34 701.96 463.20 702.07 464.26C702.18 465.33 703.08 465.97 704.16 465.95C707.04 465.88 710.19 463.99 712.19 461.24C714.83 461.15 717.01 462.96 717.41 465.95L721.87 465.95C721.45 460.34 717.65 457.77 713.93 457.68C714.11 457.02 714.22 456.34 714.24 455.65M703.61 469.51C702.25 469.51 701.72 470.48 701.72 471.38C701.72 472.31 702.27 473.23 703.61 473.23L720.42 473.23C721.76 473.23 722.31 472.31 722.31 471.38C722.31 470.48 721.78 469.51 720.42 469.51M736.33 472.84L736.33 457.37C736.33 454.60 735.80 453.74 732.92 453.74L727.77 453.74C724.89 453.74 724.36 454.60 724.36 457.37L724.36 469.21C724.36 471.98 724.89 472.84 727.77 472.84M738.72 473.67L743.08 473.67L743.08 464.54L743.81 464.54C745.13 464.54 745.54 463.53 745.54 462.63C745.54 461.75 745.15 460.71 743.81 460.71L743.08 460.71L743.08 455.15C743.08 453.76 742.02 453.01 740.90 453.01C739.76 453.01 738.72 453.74 738.72 455.15M728.63 457.96C728.63 457.52 728.71 457.24 729.20 457.24L731.46 457.24C731.95 457.24 732.06 457.52 732.06 457.96L732.06 469.34L729.35 469.34C728.78 469.34 728.63 469.07 728.63 468.59M747.61 469.54C746.25 469.54 745.72 470.48 745.72 471.38C745.72 472.31 746.27 473.23 747.61 473.23L764.42 473.23C765.76 473.23 766.31 472.31 766.31 471.38C766.31 470.48 765.78 469.54 764.42 469.54M750.21 453.67C747.66 453.67 746.71 454.73 746.71 457.11L746.71 463.20C746.71 465.58 747.66 466.63 750.21 466.63L763.89 466.63C765.10 466.63 765.59 465.77 765.59 464.94C765.59 464.12 765.12 463.24 763.89 463.24L751.84 463.24C751.40 463.24 751.18 463.09 751.18 462.65L751.18 461.81L763.41 461.81C764.62 461.81 765.10 460.98 765.10 460.16C765.10 459.37 764.64 458.51 763.41 458.51L751.18 458.51L751.18 457.66C751.18 457.26 751.40 457.08 751.84 457.08L763.54 457.08C764.75 457.08 765.23 456.23 765.23 455.39C765.23 454.58 764.77 453.67 763.54 453.67M780.24 455.65C780.28 454.27 779.45 453.43 778.17 453.32C776.94 453.23 775.86 453.92 775.68 455.30C775.22 459 772.56 461.46 769.66 462.10C768.53 462.34 767.96 463.20 768.07 464.26C768.18 465.33 769.08 465.97 770.16 465.95C773.04 465.88 776.19 463.99 778.19 461.24C780.83 461.15 783.01 462.96 783.41 465.95L787.87 465.95C787.45 460.34 783.65 457.77 779.93 457.68C780.11 457.02 780.22 456.34 780.24 455.65M769.61 469.51C768.25 469.51 767.72 470.48 767.72 471.38C767.72 472.31 768.27 473.23 769.61 473.23L786.42 473.23C787.76 473.23 788.31 472.31 788.31 471.38C788.31 470.48 787.78 469.51 786.42 469.51M791.57 469.67C790.23 469.67 789.72 470.57 789.72 471.45C789.72 472.35 790.25 473.23 791.57 473.23L808.46 473.23C809.78 473.23 810.31 472.35 810.31 471.45C810.31 470.57 809.81 469.67 808.46 469.67L802.26 469.67L802.26 466.54L807.89 466.54C809.10 466.54 809.59 465.69 809.59 464.85C809.59 464.04 809.12 463.16 807.89 463.16L795.84 463.16C795.40 463.16 795.18 463 795.18 462.56L795.18 461.77L807.41 461.77C808.62 461.77 809.10 460.93 809.10 460.12C809.10 459.33 808.64 458.47 807.41 458.47L795.18 458.47L795.18 457.66C795.18 457.26 795.40 457.08 795.84 457.08L807.54 457.08C808.75 457.08 809.23 456.23 809.23 455.39C809.23 454.58 808.77 453.67 807.54 453.67L794.21 453.67C791.66 453.67 790.71 454.73 790.71 457.11L790.71 463.11C790.71 465.49 791.66 466.54 794.21 466.54L797.77 466.54L797.77 469.67M827.34 473.67L831.72 473.67L831.72 455.15C831.72 453.76 830.64 453.01 829.52 453.01C828.37 453.01 827.34 453.74 827.34 455.15L827.34 460.96L824.46 460.96L824.46 459.28C824.46 455.39 822.02 453.37 818.39 453.37C814.76 453.37 812.29 455.39 812.29 459.28L812.29 467.34C812.29 471.23 814.76 473.25 818.39 473.25C822.02 473.25 824.46 471.23 824.46 467.34L824.46 464.72L827.34 464.72M816.60 459.17C816.60 457.70 817.33 456.97 818.39 456.97C819.44 456.97 820.17 457.70 820.17 459.17L820.17 467.45C820.17 468.94 819.44 469.65 818.39 469.65C817.33 469.65 816.60 468.94 816.60 467.45" fill="#6b7280"/><path d="M840.91 463.35C840.91 464.72 841.79 465.58 843.27 465.58C844.74 465.58 845.62 464.70 845.62 463.35C845.62 462.01 844.74 461.13 843.27 461.13C841.79 461.13 840.91 461.99 840.91 463.35" fill="#6b7280"/><path d="M863.11 472.68C864.52 472.68 864.98 471.80 864.98 470.86C864.98 469.91 864.54 469.01 863.11 469.01L859.57 469.01C859.06 469.01 858.95 468.94 858.95 468.44L858.95 455.90C858.95 454.42 858.12 453.76 856.89 453.76C855.65 453.76 854.75 454.40 854.75 455.90L854.75 469.38C854.75 471.91 855.32 472.68 857.99 472.68M865.66 473.67L869.58 473.67L869.58 454.88C869.58 453.67 868.59 453.01 867.60 453.01C866.59 453.01 865.66 453.65 865.66 454.88L865.66 460.14L863.38 460.14C862.03 460.14 861.53 461.15 861.53 462.03C861.53 462.94 862.06 463.93 863.38 463.93L865.66 463.93M870.64 473.67L874.57 473.67L874.57 454.88C874.57 453.67 873.58 453.01 872.59 453.01C871.58 453.01 870.64 453.65 870.64 454.88M876.80 467.29C876.80 471.19 879.39 473.25 883.07 473.25C886.72 473.25 889.31 471.19 889.31 467.29L889.31 459.33C889.31 455.43 886.72 453.37 883.04 453.37C879.37 453.37 876.80 455.46 876.80 459.33M881.15 459.24C881.15 457.79 881.97 457.02 883.04 457C884.12 456.97 884.96 457.77 884.96 459.24L884.96 467.38C884.96 468.88 884.12 469.62 883.04 469.62C881.97 469.62 881.15 468.88 881.15 467.38M896.22 473.67L896.22 455.19C896.22 453.76 895.19 453.01 894.02 453.01C892.86 453.01 891.82 453.76 891.82 455.19L891.82 473.67M911.18 472.73L911.18 464.61L913.84 464.61L913.84 473.67L918.22 473.67L918.22 455.15C918.22 453.76 917.14 453.01 916.02 453.01C914.88 453.01 913.84 453.74 913.84 455.15L913.84 460.85L911.18 460.85L911.18 455.92C911.18 454.40 910.32 453.74 909.05 453.74C907.79 453.74 906.91 454.38 906.91 455.92L906.91 459.28L903.17 459.28L903.17 455.92C903.17 454.40 902.32 453.74 901.06 453.74C899.79 453.74 898.86 454.38 898.86 455.92L898.86 469.43C898.86 471.85 899.50 472.73 902.05 472.73M903.79 469.10C903.28 469.10 903.17 469.03 903.17 468.52L903.17 462.87L906.91 462.87L906.91 469.10" fill="#6b7280"/>

  <!-- 하단 도메인 -->
  <path d="M542.61 586.44C542.63 586.10 543.03 585.80 543.67 585.80C544.33 585.80 545.31 586.04 545.79 586.34C545.97 586.46 546.37 586.58 546.63 586.58C547.35 586.58 547.95 586.32 548.19 585.56C548.47 584.64 547.87 583.82 547.05 583.36C546.35 582.96 545.21 582.62 543.61 582.62C541.61 582.62 539.65 583.34 538.87 585.02C538.01 586.90 538.29 589.44 541.41 590.38C541.65 590.46 541.95 590.52 542.23 590.58C543.77 590.90 544.71 591.12 544.65 591.60C544.61 591.98 544.19 592.28 543.41 592.28C542.63 592.28 541.73 592.10 541.31 591.84C540.97 591.64 540.65 591.36 540.01 591.38C539.49 591.40 539.01 591.58 538.73 592C538.17 592.84 538.51 593.80 539.21 594.38C540.23 595.22 541.93 595.46 543.29 595.46C546.09 595.46 548.35 594.38 548.65 592.02C548.95 589.60 547.77 588.12 545.39 587.52C545.15 587.46 544.89 587.40 544.63 587.36C543.13 587.08 542.57 586.92 542.61 586.44M554.17 595.12L554.17 587.86C554.17 586.50 555.09 586.04 555.77 586.04C556.45 586.04 557.35 586.50 557.35 587.86L557.35 595.12L561.47 595.12L561.47 588.10C561.47 583.88 559.45 582.62 556.91 582.62C555.85 582.62 554.77 583 553.99 583.72C553.65 583 552.91 582.62 552.13 582.62C551.07 582.62 550.11 583.30 550.11 584.62L550.11 595.12M567.25 586.44C567.27 586.10 567.67 585.80 568.31 585.80C568.97 585.80 569.95 586.04 570.43 586.34C570.61 586.46 571.01 586.58 571.27 586.58C571.99 586.58 572.59 586.32 572.83 585.56C573.11 584.64 572.51 583.82 571.69 583.36C570.99 582.96 569.85 582.62 568.25 582.62C566.25 582.62 564.29 583.34 563.51 585.02C562.65 586.90 562.93 589.44 566.05 590.38C566.29 590.46 566.59 590.52 566.87 590.58C568.41 590.90 569.35 591.12 569.29 591.60C569.25 591.98 568.83 592.28 568.05 592.28C567.27 592.28 566.37 592.10 565.95 591.84C565.61 591.64 565.29 591.36 564.65 591.38C564.13 591.40 563.65 591.58 563.37 592C562.81 592.84 563.15 593.80 563.85 594.38C564.87 595.22 566.57 595.46 567.93 595.46C570.73 595.46 572.99 594.38 573.29 592.02C573.59 589.60 572.41 588.12 570.03 587.52C569.79 587.46 569.53 587.40 569.27 587.36C567.77 587.08 567.21 586.92 567.25 586.44M575.83 584.74C574.77 584.74 574.39 585.48 574.39 586.16C574.39 586.88 574.79 587.58 575.83 587.58L591.67 587.58C592.71 587.58 593.11 586.88 593.11 586.16C593.11 585.48 592.73 584.74 591.67 584.74M591.77 596.52C592.57 596.52 592.85 595.86 592.85 595.38C592.85 594.82 592.55 594.24 591.77 594.24L579.63 594.24C579.35 594.24 579.25 594.08 579.25 593.88C579.25 593.68 579.35 593.50 579.63 593.50L592.29 593.50L592.29 590.30C592.29 589.08 591.75 588.44 590.05 588.44L576.29 588.44C575.49 588.44 575.15 589.06 575.15 589.58C575.15 590.10 575.55 590.70 576.29 590.70L587.75 590.70C588.05 590.70 588.17 590.84 588.17 591.02L588.17 591.44L577.47 591.44C575.73 591.44 574.95 592.46 574.95 593.86L574.95 593.92C574.95 595.28 575.75 596.52 577.47 596.52M590.75 583.86C591.93 583.86 592.37 583.26 592.37 582.46C592.37 581.68 591.95 581.02 590.75 581.02L579.83 581.02C579.39 581.02 579.29 580.96 579.29 580.54L579.29 579.86C579.29 578.54 578.37 577.90 577.29 577.90C576.21 577.90 575.21 578.52 575.21 579.86L575.21 581.22C575.21 583.24 575.97 583.86 578.01 583.86M598.95 589.40C598.95 588.70 599.17 588.54 599.87 588.54L605.99 588.54L605.99 581.54C605.99 579.26 605.25 578.48 602.49 578.48L596.83 578.48C595.61 578.48 595.13 579.36 595.13 580.16C595.13 580.98 595.63 581.82 596.83 581.82L601.43 581.82C601.89 581.82 601.97 582.12 601.97 582.38L601.97 585.28L598.39 585.28C595.89 585.28 594.93 586.14 594.93 588.64L594.93 592.28C594.93 594.78 595.89 595.68 598.39 595.68L605.77 595.68C606.97 595.68 607.47 594.86 607.47 594.04C607.47 593.24 606.99 592.40 605.77 592.40L599.87 592.40C599.17 592.40 598.95 592.24 598.95 591.54M612.57 596.52L612.57 579.72C612.57 578.42 611.63 577.74 610.57 577.74C609.51 577.74 608.57 578.42 608.57 579.72L608.57 596.52M632.57 596.52L632.57 579.72C632.57 578.42 631.63 577.74 630.57 577.74C629.51 577.74 628.57 578.42 628.57 579.72L628.57 596.52M616.21 592.40C615.21 592.50 614.71 593.16 614.67 594C614.61 595.20 615.61 595.74 616.59 595.72C621.69 595.62 625.75 592.84 625.75 585.72L625.75 581.42C625.75 579.56 624.87 578.50 622.61 578.50L616.69 578.50C615.47 578.50 614.91 579.42 614.91 580.24C614.91 581.08 615.49 581.96 616.69 581.96L621.25 581.96C621.57 581.96 621.75 582.18 621.75 582.46L621.75 585.70C621.75 590.62 619.59 592.08 616.21 592.40M634.53 593.40C634.53 594.64 635.33 595.42 636.67 595.42C638.01 595.42 638.81 594.62 638.81 593.40C638.81 592.18 638.01 591.38 636.67 591.38C635.33 591.38 634.53 592.16 634.53 593.40M640.63 595.12L644.63 595.12L644.63 592L645.83 590.84L648.43 595.12L652.95 595.12L648.53 588.26L651.17 585.72C651.91 585.02 651.79 583.60 650.95 582.96C650.11 582.32 648.85 582.52 648.17 583.28L644.63 587.18L644.63 580.22C644.63 578.90 643.69 578.22 642.65 578.22C641.61 578.22 640.63 578.90 640.63 580.22M657.71 595.12L657.71 588.08C657.77 587.08 658.43 586.46 659.53 586.38C659.81 586.36 660.17 586.38 660.45 586.38C661.33 586.38 662.05 585.78 662.19 584.84C662.33 583.90 661.89 583.10 661.13 582.78C660.83 582.66 660.49 582.62 660.19 582.62C659.21 582.62 658.27 583.04 657.53 583.74C657.19 583 656.45 582.62 655.67 582.62C654.61 582.62 653.65 583.30 653.65 584.62L653.65 595.12" fill="#9ca3af"/>
</svg>